<svg xmlns="http://www.w3.org/2000/svg"  viewBox="0 0 100 100" width="200px" height="200px"><path fill="#b77748" d="M75,27c0-8-2.64-11-12-14c-7-8-17.708-6-19.81-4c-5.255,5-12.957,2.721-20.07,14 c-3.153,5-6.222,9-4.12,17c1.71,6.508-2,18,6,20c5.309,1.327,16.331-15.19,18.207-22.567c0.691-2.717,2.986-4.79,5.872-5.318 L71.47,44C73.332,43.659,79,35,75,27z"/><path d="M25.593,61.07c-0.286,0-0.565-0.032-0.835-0.101c-6.228-1.557-6.224-8.037-6.22-13.755 c0.001-2.585,0.003-5.027-0.505-6.961c-2.073-7.888,0.688-12.218,3.613-16.801l0.627-0.986c4.643-7.361,9.523-9.171,13.829-10.768 c2.462-0.913,4.588-1.701,6.397-3.423c1.212-1.153,4.504-2.227,8.447-2.044c4.916,0.225,9.386,2.318,12.619,5.9 c9.546,3.103,12.381,6.438,12.433,14.635c2.865,5.968,0.64,11.7-0.461,13.905c-0.913,1.828-2.479,4.054-3.889,4.313 c-0.221,0.04-0.449,0.005-0.648-0.101L48.929,33.167c-2.34,0.549-4.187,2.29-4.753,4.512C42.47,44.389,32.072,61.069,25.593,61.07z M50.073,8.211c-3.136,0-5.516,0.868-6.194,1.514c-2.107,2.005-4.523,2.901-7.081,3.85c-4.204,1.559-8.552,3.171-12.833,9.959 l-0.632,0.995c-2.915,4.567-5.217,8.175-3.366,15.217c0.574,2.185,0.572,4.872,0.571,7.47c-0.004,5.47-0.007,10.637,4.704,11.814 c4.425,1.081,15.138-14.539,16.996-21.844c0.784-3.082,3.398-5.458,6.661-6.055c0.221-0.04,0.449-0.005,0.648,0.101l21.959,11.656 c0.549-0.415,1.719-1.768,2.682-4.072c0.953-2.278,2.209-6.785-0.083-11.369C74.036,27.309,74,27.155,74,27 c0-7.487-2.324-10.169-11.306-13.048c-0.173-0.055-0.327-0.157-0.447-0.293c-3.697-4.226-8.235-5.285-11.392-5.43 C50.591,8.217,50.329,8.211,50.073,8.211z M76,27h0.01H76z"/><circle cx="71.5" cy="61.5" r="7.5" fill="#fed5b3"/><path d="M71.5,70c-4.687,0-8.5-3.813-8.5-8.5s3.813-8.5,8.5-8.5s8.5,3.813,8.5,8.5S76.187,70,71.5,70z M71.5,55 c-3.584,0-6.5,2.916-6.5,6.5s2.916,6.5,6.5,6.5s6.5-2.916,6.5-6.5S75.084,55,71.5,55z"/><path fill="#fed5b3" d="M72.749,37.023c-2.847-26.168-45.581-28.775-47.752,1.984c0,0-0.915,6.579-0.991,15.009 c-0.487-0.099-0.99-0.151-1.506-0.151c-4.142,0-7.5,3.346-7.5,7.473c0,4.127,3.358,7.473,7.5,7.473c0.833,0,1.631-0.141,2.38-0.39 c0.647,4.418,1.714,8.678,3.412,12.228c6.619,13.836,36.072,16.338,41.703,0.119C75.618,64.573,74.079,49.241,72.749,37.023z"/><path d="M50.75,92.997c-9.036,0.001-19.54-3.932-23.36-11.917c-1.475-3.082-2.593-6.918-3.329-11.415 c-0.517,0.098-1.038,0.146-1.561,0.146c-4.687,0-8.5-3.801-8.5-8.474c0-4.672,3.813-8.473,8.5-8.473 c0.174,0,0.349,0.005,0.522,0.016c0.141-7.86,0.976-13.948,0.984-14.012c1.183-16.792,13.614-23.002,23.898-23.198 c0.173-0.003,0.348-0.005,0.521-0.005c11.52,0,23.791,7.221,25.317,21.248l0,0c1.263,11.601,2.992,27.489-2.804,44.182 c-2.398,6.908-9.315,11.34-18.504,11.855C51.881,92.981,51.317,92.997,50.75,92.997z M24.88,67.421 c0.184,0,0.365,0.051,0.524,0.148c0.252,0.155,0.422,0.414,0.465,0.707c0.7,4.774,1.818,8.792,3.325,11.94 c3.681,7.694,14.413,11.222,23.129,10.737c8.351-0.469,14.604-4.399,16.728-10.515c5.647-16.268,3.946-31.896,2.704-43.309l0,0 c-1.42-13.045-13.079-19.654-23.812-19.46c-9.441,0.179-20.854,5.893-21.949,21.406c-0.016,0.133-0.914,6.687-0.987,14.948 c-0.003,0.299-0.139,0.581-0.371,0.769c-0.232,0.188-0.535,0.264-0.829,0.202c-0.426-0.087-0.865-0.131-1.307-0.131 c-3.584,0-6.5,2.903-6.5,6.473s2.916,6.474,6.5,6.474c0.693,0,1.388-0.114,2.064-0.34C24.667,67.438,24.773,67.421,24.88,67.421z"/><circle cx="64" cy="42" r="8.5" fill="#fff"/><path d="M64,51c-4.963,0-9-4.038-9-9s4.037-9,9-9s9,4.038,9,9S68.963,51,64,51z M64,34c-4.411,0-8,3.589-8,8s3.589,8,8,8 s8-3.589,8-8S68.411,34,64,34z"/><circle cx="40" cy="42" r="8.5" fill="#fff"/><path d="M40,51c-4.963,0-9-4.038-9-9s4.037-9,9-9s9,4.038,9,9S44.963,51,40,51z M40,34c-4.411,0-8,3.589-8,8s3.589,8,8,8 s8-3.589,8-8S44.411,34,40,34z"/><path d="M57,64h-7.5c-0.276,0-0.5-0.224-0.5-0.5s0.224-0.5,0.5-0.5h6.807l-3.781-11.342c-0.087-0.262,0.055-0.545,0.316-0.633 c0.263-0.088,0.545,0.055,0.633,0.316l4,12c0.051,0.152,0.025,0.32-0.069,0.45C57.312,63.923,57.161,64,57,64z"/><circle cx="40.5" cy="42.5" r="1.5"/><circle cx="63.5" cy="42.5" r="1.5"/><path d="M49.312,78.265c-3.613,0-6.386-0.766-6.449-0.784c-0.265-0.075-0.419-0.353-0.343-0.617 c0.075-0.266,0.353-0.426,0.617-0.344c0.137,0.038,13.704,3.773,19.435-5.776c0.143-0.237,0.452-0.314,0.686-0.172 c0.237,0.142,0.314,0.449,0.172,0.686C59.983,77,53.954,78.265,49.312,78.265z"/><g><path d="M71.5,34c-0.183,0-0.359-0.101-0.447-0.276c-1.86-3.721-7.578-4.721-7.635-4.73c-0.272-0.046-0.456-0.303-0.411-0.576 c0.046-0.272,0.311-0.46,0.575-0.411c0.256,0.042,6.275,1.09,8.365,5.27c0.123,0.247,0.023,0.547-0.224,0.671 C71.651,33.983,71.575,34,71.5,34z"/></g><g><path d="M32.5,34c-0.088,0-0.177-0.023-0.257-0.071c-0.237-0.142-0.314-0.449-0.172-0.686C35.181,28.06,42.202,28,42.5,28 c0.276,0,0.5,0.224,0.5,0.5S42.776,29,42.5,29c-0.066,0-6.756,0.064-9.571,4.757C32.835,33.914,32.669,34,32.5,34z"/></g><g><path d="M66.499,71c-0.233,0-0.441-0.164-0.489-0.402c-0.285-1.424-0.845-2.351-1.664-2.754c-1.191-0.589-2.608,0.098-2.623,0.104 c-0.247,0.119-0.547,0.021-0.67-0.227c-0.122-0.246-0.022-0.546,0.224-0.669c0.076-0.037,1.859-0.915,3.503-0.11 c1.117,0.546,1.861,1.71,2.211,3.46c0.055,0.271-0.121,0.534-0.393,0.588C66.565,70.997,66.532,71,66.499,71z"/></g><g><path d="M51.196,88.101c-0.512,0-1.033-0.013-1.563-0.038c-0.276-0.013-0.489-0.247-0.476-0.522 c0.014-0.276,0.251-0.512,0.522-0.476c1.817,0.087,3.519,0.02,5.063-0.197c0.269-0.034,0.525,0.151,0.564,0.426 c0.038,0.273-0.152,0.526-0.426,0.564C53.729,88.02,52.494,88.101,51.196,88.101z"/></g><g><path d="M58.033,87.165c-0.21,0-0.404-0.133-0.475-0.342c-0.087-0.263,0.055-0.546,0.316-0.633 c5.683-1.891,6.711-6.051,6.752-6.228c0.063-0.268,0.336-0.436,0.599-0.374c0.269,0.062,0.438,0.328,0.376,0.597 c-0.045,0.198-1.17,4.877-7.41,6.954C58.139,87.157,58.086,87.165,58.033,87.165z"/></g></svg>