<svg xmlns="http://www.w3.org/2000/svg"  viewBox="0 0 100 100" width="200px" height="200px"><path fill="#f69272" d="M41,15c0,0-24-7-26,18c-1.358,16.975,14,20,1,49c0,0,19-2,22-24S41,15,41,15z"/><path d="M16,83c-0.318,0-0.62-0.152-0.81-0.413c-0.21-0.29-0.249-0.67-0.103-0.996c8.078-18.021,4.982-25.767,1.989-33.257 c-1.765-4.415-3.589-8.98-3.074-15.414c0.616-7.701,3.336-13.265,8.084-16.539c8.002-5.515,18.74-2.473,19.193-2.342 C41.707,14.165,42,14.556,42,15c0,0.21-0.034,21.32-3.009,43.135C35.92,80.652,16.303,82.974,16.104,82.994 C16.069,82.998,16.034,83,16,83z M33.85,15.108c-3.321,0-7.299,0.622-10.638,2.927c-4.222,2.916-6.649,7.978-7.215,15.044 c-0.478,5.967,1.181,10.118,2.938,14.512c3.05,7.632,6.201,15.515-1.269,33.092c4.67-1.086,16.99-5.563,19.343-22.818 c2.635-19.316,2.949-38.079,2.986-42.084C38.881,15.531,36.589,15.108,33.85,15.108z"/><path fill="#f69272" d="M76,31c0,0,7-23-23-22c-31.998,1.067-31,39-19,51C47.153,73.153,76,31,76,31z"/><path d="M40.071,63.543c-2.617,0-4.894-0.951-6.778-2.836c-6.881-6.881-10.796-22.988-5.659-36 C31.727,14.341,40.724,8.409,52.967,8c10.332-0.343,17.587,2.08,21.519,7.205c5.215,6.798,2.586,15.709,2.472,16.085 c-0.03,0.098-0.074,0.19-0.132,0.274c-0.854,1.248-21.077,30.57-35.7,31.928C40.768,63.526,40.417,63.543,40.071,63.543z M54.878,9.968c-0.603,0-1.217,0.01-1.845,0.031c-14.608,0.487-20.863,8.666-23.539,15.441c-4.849,12.282-1.22,27.419,5.213,33.852 c1.717,1.717,3.76,2.436,6.232,2.209c13.218-1.228,32.629-28.757,34.143-30.933c0.297-1.117,2.068-8.617-2.193-14.159 C69.599,12.132,63.544,9.968,54.878,9.968z M76,31h0.01H76z"/><path fill="#fed5b3" d="M78,28c-5-15-35-15-40,7c0,0-2,8-1.258,19.379C33.985,55.319,32,57.925,32,61c0,3.866,3.134,7,7,7 c0.248,0,0.493-0.014,0.734-0.039C41.174,73.183,42.916,77.874,45,81c8,12,28,10,33-3C82.789,65.548,84,46,78,28z"/><path d="M60.612,89.971c-6.749,0-12.899-3.099-16.444-8.416c-1.861-2.793-3.604-7.014-5.182-12.555C34.581,68.992,31,65.406,31,61 c0-3.161,1.859-5.998,4.7-7.283c-0.617-11.014,1.248-18.634,1.33-18.959C39.936,21.973,50.8,16.946,59.22,16.532 c9.412-0.47,17.351,4.018,19.729,11.152c6.674,20.021,4.163,39.812-0.015,50.676c-2.408,6.26-8.483,10.657-15.855,11.475 C62.25,89.926,61.427,89.971,60.612,89.971z M39.734,66.961c0.444,0,0.843,0.297,0.963,0.734c1.578,5.717,3.306,10.007,5.135,12.75 c3.557,5.335,10.084,8.172,17.026,7.4c6.625-0.734,12.069-4.645,14.208-10.205c4.06-10.555,6.491-29.805-0.015-49.324 c-2.091-6.272-9.21-10.213-17.733-9.787c-8.091,0.398-17.684,4.992-20.343,16.692c-0.025,0.099-1.958,8.021-1.235,19.092 c0.029,0.451-0.247,0.866-0.675,1.012C34.634,56.154,33,58.436,33,61c0,3.309,2.691,6,6,6c0.213,0,0.422-0.012,0.629-0.033 C39.664,66.963,39.699,66.961,39.734,66.961z"/><path d="M69,61.5h-8c-0.276,0-0.5-0.224-0.5-0.5s0.224-0.5,0.5-0.5h7.25l-4.712-11.308c-0.105-0.255,0.015-0.548,0.27-0.654 c0.252-0.106,0.548,0.014,0.654,0.269l5,12c0.063,0.154,0.047,0.331-0.046,0.47S69.167,61.5,69,61.5z"/><path d="M63.559,76.72c-0.01,0-0.02,0-0.029,0c-4.905-0.016-8.263-3.729-8.403-3.888c-0.183-0.206-0.164-0.521,0.042-0.705 c0.204-0.184,0.521-0.166,0.705,0.04c0.032,0.036,3.215,3.544,7.668,3.553c0.006,0,0.012,0,0.018,0c2.967,0,5.85-1.532,8.569-4.555 c0.187-0.204,0.502-0.221,0.707-0.037c0.205,0.186,0.222,0.501,0.037,0.707C69.954,75.076,66.821,76.72,63.559,76.72z"/><path d="M44.5,29.999c-0.128,0-0.257-0.049-0.354-0.147c-0.193-0.195-0.193-0.51,0.001-0.705c0.085-0.085,2.153-2.106,8.195-4.121 c0.262-0.085,0.545,0.054,0.633,0.316c0.087,0.262-0.055,0.545-0.316,0.632c-5.778,1.926-7.786,3.861-7.806,3.881 C44.755,29.951,44.628,29.999,44.5,29.999z"/><path d="M79,31c-0.128,0-0.256-0.049-0.354-0.146C74.914,27.121,73.009,27,72.989,27c-0.271-0.011-0.489-0.238-0.484-0.51 C72.511,26.218,72.728,26,73,26c0.226,0,2.323,0.116,6.354,4.146c0.195,0.195,0.195,0.512,0,0.707C79.256,30.951,79.128,31,79,31z"/><circle cx="51" cy="42" r="8.5" fill="#fff"/><path d="M51,51c-4.963,0-9-4.038-9-9s4.037-9,9-9s9,4.038,9,9S55.963,51,51,51z M51,34c-4.411,0-8,3.589-8,8s3.589,8,8,8 s8-3.589,8-8S55.411,34,51,34z"/><circle cx="73" cy="42" r="8.5" fill="#fff"/><path d="M73,51c-4.963,0-9-4.038-9-9s4.037-9,9-9s9,4.038,9,9S77.963,51,73,51z M73,34c-4.411,0-8,3.589-8,8s3.589,8,8,8 s8-3.589,8-8S77.411,34,73,34z"/><g><circle cx="52.5" cy="42.5" r="1.5"/></g><g><circle cx="73.5" cy="42.5" r="1.5"/></g><g><path d="M22.67,75.926c-0.078,0-0.157-0.019-0.23-0.057c-0.245-0.127-0.341-0.429-0.213-0.674c1.65-3.174,2.655-6.688,2.985-10.443 c0.023-0.274,0.27-0.468,0.542-0.454c0.275,0.024,0.479,0.267,0.454,0.542c-0.342,3.887-1.383,7.526-3.095,10.816 C23.024,75.828,22.85,75.926,22.67,75.926z"/></g><g><path d="M25.805,61.281c-0.268,0-0.488-0.211-0.5-0.479c-0.107-2.661-0.53-4.387-0.535-4.404c-0.066-0.268,0.097-0.539,0.364-0.606 c0.269-0.067,0.538,0.096,0.606,0.364c0.019,0.073,0.452,1.833,0.564,4.605c0.011,0.276-0.204,0.509-0.479,0.521 C25.818,61.281,25.812,61.281,25.805,61.281z"/></g></svg>